<?xml version="1.0" encoding="UTF-8" ?>
<!DOCTYPE svg PUBLIC "-//W3C//DTD SVG 1.1//EN" "http://www.w3.org/Graphics/SVG/1.1/DTD/svg11.dtd">
<svg width="370pt" height="152pt" viewBox="0 0 2847 1167" version="1.1" xmlns="http://www.w3.org/2000/svg">
<g id="#ffffffff">
</g>
<g id="#18204dff">
<path fill="#18204d" opacity="1.00" d=" M 1293.98 2.77 C 1304.65 2.88 1315.26 1.64 1325.94 1.94 C 1353.96 1.82 1381.98 1.49 1410.01 1.63 C 1443.66 1.68 1477.32 1.46 1510.97 1.94 C 1532.00 1.51 1552.98 3.36 1574.02 3.31 C 1580.97 4.22 1587.99 3.56 1594.96 4.19 C 1602.27 4.90 1609.62 4.27 1616.93 5.11 C 1630.67 5.16 1644.35 6.52 1658.10 6.61 C 1702.31 8.90 1746.51 11.31 1790.65 14.38 C 1839.14 18.10 1887.63 22.07 1936.02 27.08 C 2062.50 40.24 2188.47 58.83 2312.98 84.78 C 2373.80 97.10 2434.20 111.60 2493.79 128.94 C 2540.11 142.62 2585.95 157.99 2630.70 176.19 C 2668.80 191.64 2706.65 208.35 2741.30 230.69 C 2773.16 251.22 2802.63 276.76 2823.09 309.00 C 2834.24 326.57 2842.80 346.20 2845.36 366.99 C 2848.29 387.83 2842.87 410.11 2829.39 426.48 C 2817.21 441.80 2801.22 453.57 2784.47 463.44 C 2758.63 477.72 2732.37 492.13 2703.61 499.58 C 2690.05 503.27 2675.95 504.25 2662.00 505.23 C 2654.92 505.43 2647.87 507.00 2640.82 505.88 C 2642.91 503.65 2646.06 503.14 2648.81 502.06 C 2661.67 497.25 2674.53 492.46 2687.16 487.06 C 2704.94 480.30 2721.60 470.91 2737.60 460.67 C 2756.53 448.07 2775.00 434.08 2789.12 416.07 C 2800.11 402.22 2805.21 383.57 2801.65 366.15 C 2798.27 347.46 2787.16 331.27 2774.75 317.34 C 2761.28 302.82 2745.35 290.83 2728.63 280.31 C 2694.07 258.30 2657.24 240.03 2619.36 224.50 C 2572.56 205.26 2524.25 189.94 2475.49 176.56 C 2413.73 159.43 2350.97 146.17 2287.92 134.75 C 2246.45 127.34 2204.77 121.16 2163.07 115.18 C 2154.01 114.01 2144.97 112.78 2135.90 111.82 C 2109.68 107.99 2083.34 105.19 2057.04 101.94 C 2031.36 99.28 2005.73 96.12 1979.99 94.03 C 1967.02 92.66 1954.06 90.97 1941.05 90.24 L 1940.12 89.73 C 1918.32 88.54 1896.62 85.62 1874.82 84.35 C 1836.56 81.27 1798.26 78.32 1759.97 76.33 C 1692.10 71.80 1624.07 69.50 1556.01 68.14 C 1545.67 68.12 1535.35 67.19 1525.01 67.42 C 1498.00 67.68 1471.03 66.51 1444.02 66.81 C 1412.00 66.89 1379.98 66.49 1347.98 67.39 C 1336.32 67.40 1324.66 67.43 1313.00 67.43 C 1298.68 68.47 1284.29 67.89 1269.96 68.67 C 1259.95 68.45 1250.00 69.52 1240.00 69.29 C 1234.98 69.18 1230.02 70.19 1225.00 69.97 C 1219.01 69.84 1213.02 69.94 1207.07 70.53 C 1189.02 70.52 1171.06 72.13 1153.04 72.50 C 1128.94 73.87 1104.84 75.08 1080.77 76.74 C 1042.85 78.59 1004.95 81.88 967.06 84.63 C 895.38 90.83 823.76 97.70 752.35 106.46 C 640.02 120.09 527.94 137.46 417.95 164.39 C 364.92 177.67 312.25 192.69 260.91 211.53 C 210.70 230.07 161.63 252.42 116.62 281.55 C 96.16 294.44 76.82 309.84 62.35 329.40 C 52.84 342.53 45.18 357.76 44.33 374.22 C 43.86 383.06 45.48 392.04 48.68 400.30 C 52.93 410.84 60.35 419.69 68.06 427.88 C 84.17 443.86 102.82 457.08 122.31 468.63 C 148.53 484.35 177.67 494.08 206.06 505.03 C 203.94 507.08 200.68 506.02 198.04 506.26 C 185.72 505.15 173.34 504.58 161.06 503.03 C 135.68 499.65 111.85 489.42 89.26 477.77 C 69.03 467.45 48.67 456.65 31.68 441.36 C 20.69 431.44 10.77 419.68 5.68 405.60 C 2.27 396.41 1.72 386.60 0.24 377.02 C 0.17 374.62 1.29 372.39 1.46 370.01 C 3.35 347.31 12.90 325.98 25.14 307.04 C 48.64 271.26 82.80 243.88 119.33 222.29 C 141.57 209.10 164.97 198.00 188.66 187.69 C 301.46 138.99 420.86 107.65 541.03 83.33 C 655.56 59.71 771.33 42.30 887.56 29.61 C 898.39 28.47 909.25 27.50 920.04 25.96 C 951.36 23.36 982.62 20.03 1013.96 17.67 C 1037.18 16.08 1060.36 13.78 1083.59 12.58 C 1132.98 9.42 1182.49 6.70 1231.98 4.95 C 1238.67 4.26 1245.42 4.93 1252.12 4.20 C 1258.38 3.52 1264.71 4.24 1270.97 3.44 C 1278.63 3.02 1286.32 3.51 1293.98 2.77 Z" />
<path fill="#18204d" opacity="1.00" d=" M 1410.61 122.65 C 1411.52 119.34 1411.57 115.81 1413.00 112.64 C 1414.73 115.52 1415.28 118.82 1416.00 122.04 C 1423.89 153.07 1431.79 184.10 1439.58 215.16 C 1439.66 216.96 1441.66 216.95 1443.00 216.92 C 1454.32 216.96 1465.64 216.73 1476.94 217.50 C 1485.95 217.94 1495.00 217.21 1503.99 218.15 C 1509.96 218.49 1515.96 217.89 1521.92 218.56 C 1578.06 220.60 1634.15 223.46 1690.13 228.40 C 1693.56 222.90 1695.99 216.78 1698.85 210.95 C 1705.64 197.00 1712.07 182.86 1719.06 169.01 C 1718.97 179.71 1719.78 190.38 1720.34 201.05 C 1719.86 207.04 1721.30 212.95 1721.07 218.94 C 1720.96 222.91 1721.39 226.87 1721.66 230.83 C 1768.88 235.63 1816.14 240.27 1863.19 246.64 C 1885.33 249.47 1907.44 252.48 1929.52 255.78 C 1943.37 235.60 1956.87 215.17 1971.00 195.18 C 1968.41 217.02 1965.26 238.80 1963.11 260.68 C 2011.85 268.69 2060.56 276.91 2109.03 286.45 C 2121.01 269.77 2132.85 252.97 2145.14 236.51 C 2143.33 249.68 2141.35 262.82 2139.47 275.97 C 2138.92 281.37 2137.42 286.67 2137.53 292.12 C 2174.78 299.64 2211.91 307.75 2248.93 316.32 C 2253.02 317.18 2257.06 318.55 2261.29 318.81 C 2268.82 306.77 2276.87 295.05 2284.60 283.13 C 2283.12 296.64 2281.16 310.09 2279.89 323.62 C 2320.66 333.42 2361.23 344.10 2401.72 354.96 C 2408.90 345.39 2415.89 335.66 2422.61 325.76 C 2421.19 337.01 2418.96 348.15 2417.27 359.36 C 2443.73 366.92 2470.19 374.49 2496.51 382.57 C 2505.64 385.33 2514.71 388.35 2523.90 390.93 C 2527.29 392.57 2528.73 388.56 2530.63 386.63 C 2535.07 381.24 2539.31 375.69 2544.05 370.55 C 2543.27 379.29 2542.15 388.01 2542.01 396.78 C 2566.13 404.55 2590.20 412.50 2614.10 420.93 C 2621.03 423.19 2627.80 426.03 2634.81 428.09 C 2636.22 426.89 2637.21 425.31 2638.47 423.93 C 2637.72 425.55 2637.09 427.20 2636.55 428.89 C 2642.05 430.88 2647.53 432.96 2653.09 434.80 C 2646.92 433.84 2641.10 431.41 2635.10 429.81 C 2588.98 500.86 2543.05 572.03 2497.12 643.20 C 2501.35 598.16 2505.99 553.15 2510.50 508.14 C 2510.73 504.09 2511.81 500.07 2511.36 496.00 C 2494.84 510.54 2479.27 526.14 2463.05 541.02 C 2426.41 575.39 2389.90 609.94 2353.15 644.20 C 2352.97 634.44 2354.04 624.73 2353.85 614.97 C 2353.99 607.98 2353.48 600.96 2354.41 594.00 C 2354.64 585.00 2354.43 575.99 2354.56 567.00 C 2355.99 555.38 2354.24 543.62 2355.68 532.01 C 2355.87 524.31 2355.73 516.62 2355.78 508.93 C 2356.68 499.12 2356.46 489.25 2356.26 479.41 C 2352.11 482.54 2349.54 487.21 2346.01 490.94 C 2304.32 541.95 2262.56 592.88 2220.91 643.92 C 2220.63 637.94 2221.36 632.00 2221.57 626.05 C 2221.49 615.33 2222.48 604.65 2222.29 593.93 C 2223.24 584.99 2222.32 575.98 2223.46 567.07 C 2223.26 556.04 2224.41 545.04 2224.14 534.01 C 2225.44 525.37 2224.06 516.60 2225.33 507.96 C 2225.71 501.92 2224.90 495.84 2225.75 489.83 C 2226.37 483.41 2225.40 476.92 2226.40 470.54 C 2226.83 467.04 2226.66 463.51 2226.70 460.00 C 2226.23 452.70 2227.92 445.47 2227.19 438.16 C 2223.49 440.85 2221.34 445.05 2218.41 448.46 C 2178.69 500.06 2138.95 551.64 2099.22 603.23 C 2088.80 616.52 2078.82 630.16 2068.18 643.27 C 2074.86 557.16 2081.55 471.06 2088.63 384.99 C 2087.21 385.34 2086.05 386.22 2085.32 387.45 C 2023.09 472.99 1960.63 558.35 1898.48 643.93 C 1898.72 639.57 1898.15 635.19 1898.82 630.86 C 1899.74 623.81 1898.55 616.66 1899.53 609.63 C 1900.23 603.08 1899.39 596.47 1899.96 589.92 C 1901.18 582.00 1899.64 573.95 1900.89 566.03 C 1901.51 559.33 1900.51 552.56 1901.50 545.88 C 1902.06 539.95 1901.46 533.98 1901.78 528.04 C 1902.89 521.10 1901.94 514.06 1902.45 507.09 C 1903.45 499.90 1902.45 492.61 1903.23 485.40 C 1903.94 478.65 1903.49 471.85 1903.74 465.09 C 1904.86 457.10 1903.69 448.99 1904.67 441.00 C 1905.16 434.72 1904.57 428.40 1905.13 422.13 C 1905.92 415.15 1905.32 408.12 1905.72 401.14 C 1906.57 394.44 1905.87 387.69 1906.31 380.98 C 1907.00 375.34 1906.77 369.65 1906.82 363.99 C 1906.62 359.48 1907.74 355.03 1907.30 350.52 C 1906.16 351.31 1905.18 352.26 1904.44 353.42 C 1859.56 420.15 1814.59 486.83 1769.71 553.57 C 1749.45 583.50 1729.46 613.62 1709.06 643.45 C 1706.25 608.67 1704.56 573.78 1701.96 538.99 C 1697.52 466.34 1692.63 393.63 1687.91 321.01 C 1687.30 315.04 1687.71 308.96 1686.21 303.11 C 1683.07 307.35 1681.52 312.46 1679.00 317.05 C 1644.24 388.60 1609.54 460.19 1574.80 531.75 C 1556.73 569.15 1538.34 606.40 1520.55 643.94 C 1508.36 601.40 1496.79 558.68 1484.87 516.06 C 1461.51 432.07 1438.13 348.07 1414.85 264.05 C 1414.75 262.91 1413.68 260.51 1412.67 262.50 C 1410.50 268.61 1409.05 274.97 1407.24 281.21 C 1373.69 402.13 1339.96 523.01 1306.51 643.96 C 1306.20 643.70 1305.57 643.17 1305.26 642.91 C 1251.05 531.10 1196.75 419.34 1142.52 307.55 C 1142.04 306.32 1141.19 305.32 1140.19 304.51 C 1138.45 315.99 1138.52 327.66 1137.48 339.21 C 1131.69 428.49 1126.01 517.73 1120.14 606.98 C 1119.19 619.47 1118.71 632.00 1117.55 644.47 C 1052.20 547.75 987.12 450.85 921.93 354.02 C 921.26 353.02 920.24 352.37 919.29 351.71 C 919.56 359.81 919.80 367.92 919.82 376.03 C 920.75 384.27 919.93 392.59 920.74 400.84 C 921.36 406.90 920.81 412.99 921.24 419.06 C 921.97 426.00 921.33 433.00 921.80 439.96 C 922.70 447.96 921.75 456.05 922.71 464.06 C 923.16 470.04 922.60 476.05 923.15 482.03 C 923.95 490.32 922.99 498.68 924.08 506.95 C 924.35 513.68 923.80 520.45 924.64 527.16 C 925.11 534.12 924.35 541.14 925.30 548.08 C 925.56 554.85 925.13 561.66 925.78 568.43 C 926.50 574.62 925.80 580.87 926.28 587.08 C 927.15 593.68 926.43 600.36 926.83 607.00 C 928.02 615.29 926.61 623.73 927.85 632.02 C 928.30 636.12 928.01 640.27 928.00 644.39 C 914.45 626.42 901.48 608.01 888.13 589.90 C 840.73 524.96 793.45 459.95 746.05 395.02 C 743.44 391.86 741.63 387.96 738.29 385.49 C 738.41 395.69 739.86 405.82 740.40 416.00 C 743.75 456.93 746.83 497.87 750.26 538.79 C 752.70 573.94 755.98 609.05 758.29 644.21 C 706.84 577.79 655.78 511.05 604.41 444.56 C 602.92 442.62 601.59 440.41 599.27 439.37 C 599.15 443.27 599.06 447.21 599.65 451.08 C 600.25 457.77 599.29 464.53 600.36 471.19 C 600.89 477.41 600.04 483.68 600.72 489.91 C 601.72 496.21 600.68 502.62 601.37 508.95 C 602.34 515.27 601.31 521.67 601.96 528.01 C 603.03 535.12 601.79 542.34 602.67 549.47 C 603.71 556.41 602.46 563.48 603.51 570.44 C 604.04 576.62 603.25 582.85 603.92 589.03 C 604.85 595.27 603.83 601.61 604.49 607.88 C 605.21 614.60 604.65 621.37 605.15 628.10 C 605.60 633.54 605.53 639.00 605.59 644.46 C 582.77 617.19 560.55 589.41 537.89 562.00 C 516.20 535.40 494.44 508.85 472.72 482.28 C 471.96 481.51 471.12 480.84 470.20 480.28 C 470.24 488.49 469.73 496.76 470.70 504.94 C 471.15 515.31 470.10 525.73 471.38 536.06 C 471.69 546.70 470.73 557.41 472.02 568.00 C 472.41 577.98 471.51 588.01 472.63 597.96 C 473.00 608.63 472.04 619.37 473.27 630.02 C 473.50 635.04 473.10 640.07 473.27 645.09 C 422.70 597.59 372.15 550.04 321.55 502.54 C 319.57 500.63 317.81 498.30 315.05 497.49 C 317.84 529.68 321.58 561.79 324.57 593.96 C 326.42 610.68 327.66 627.46 329.71 644.15 C 312.03 617.48 294.92 590.43 277.46 563.60 C 249.96 521.13 222.54 478.61 195.01 436.16 C 192.35 437.13 189.67 438.09 186.93 438.81 C 189.42 437.76 191.95 436.78 194.44 435.71 C 192.89 432.22 190.14 429.42 188.80 425.83 C 191.95 428.41 193.37 433.10 197.05 434.79 C 225.37 423.84 253.94 413.51 282.68 403.68 C 283.89 403.21 285.76 402.77 285.19 400.99 C 284.40 391.23 283.37 381.49 282.61 371.73 C 285.26 373.94 287.10 376.91 289.32 379.52 C 294.06 385.24 298.74 391.02 303.64 396.61 C 338.83 384.70 374.41 373.98 409.92 363.10 C 407.34 350.85 406.23 338.32 403.36 326.14 C 410.56 336.12 417.67 346.18 424.87 356.18 C 425.64 357.14 426.52 358.89 428.08 357.98 C 467.36 346.70 506.78 335.86 546.47 326.12 C 546.53 324.14 546.62 322.14 546.36 320.17 C 544.74 308.34 543.54 296.46 541.95 284.63 C 550.54 296.35 558.02 308.87 566.27 320.84 C 585.41 316.83 604.32 311.71 623.43 307.54 C 645.29 302.57 667.19 297.80 689.11 293.16 C 687.04 274.35 683.97 255.66 681.28 236.93 C 693.25 253.61 705.32 270.22 717.22 286.94 C 720.72 286.86 724.14 286.03 727.57 285.35 C 772.65 276.35 817.94 268.28 863.35 261.09 C 861.43 239.29 857.94 217.64 855.65 195.87 C 869.16 215.92 882.96 235.76 896.42 255.84 C 965.75 245.64 1035.32 237.00 1105.12 230.76 C 1105.98 211.40 1106.86 191.98 1107.66 172.67 C 1107.84 172.38 1108.20 171.80 1108.38 171.52 C 1117.37 190.22 1126.36 208.92 1135.20 227.70 C 1139.83 228.14 1144.41 227.24 1149.03 227.00 C 1199.28 223.05 1249.55 220.23 1299.92 218.64 C 1308.31 217.84 1316.76 218.68 1325.14 217.72 C 1333.45 217.61 1341.77 217.70 1350.08 217.35 C 1362.26 216.26 1374.58 217.56 1386.74 216.60 C 1394.86 185.33 1402.64 153.96 1410.61 122.65 M 1346.99 262.06 C 1333.30 261.86 1319.65 262.83 1305.97 262.64 C 1255.75 264.14 1205.48 265.66 1155.35 269.16 C 1165.35 290.86 1175.93 312.29 1186.10 333.91 C 1221.89 408.80 1257.61 483.71 1293.37 558.60 C 1294.76 561.33 1295.69 564.38 1297.85 566.65 C 1302.26 550.60 1306.04 534.38 1310.24 518.28 C 1331.84 432.77 1353.72 347.33 1375.13 261.78 C 1365.74 261.58 1356.37 262.22 1346.99 262.06 M 1451.81 262.08 C 1454.39 273.81 1457.66 285.38 1460.50 297.06 C 1483.23 386.50 1505.77 476.00 1528.57 565.43 C 1530.84 563.86 1531.46 561.00 1532.72 558.69 C 1578.38 463.01 1624.05 367.33 1669.74 271.67 C 1670.52 270.40 1670.26 269.73 1668.96 269.65 C 1633.66 267.48 1598.32 265.90 1562.99 264.51 C 1537.03 263.79 1511.09 262.62 1485.12 262.49 C 1474.02 261.93 1462.91 262.06 1451.81 262.08 M 919.82 289.51 C 924.78 297.37 930.25 304.90 935.40 312.63 C 987.13 388.40 1038.71 464.27 1090.50 539.99 C 1091.82 537.18 1091.50 534.00 1091.61 530.99 C 1091.53 524.62 1092.40 518.29 1092.23 511.93 C 1093.18 505.99 1092.39 499.96 1093.23 494.03 C 1095.39 445.03 1097.54 396.02 1099.80 347.01 C 1100.73 322.12 1102.31 297.24 1102.91 272.34 C 1041.78 276.92 980.67 282.12 919.82 289.51 M 1723.49 273.36 C 1727.14 351.90 1730.54 430.46 1734.09 509.01 C 1734.61 518.98 1734.68 529.01 1735.74 538.94 C 1738.73 535.79 1740.88 531.98 1743.37 528.44 C 1776.37 480.10 1809.30 431.71 1842.31 383.38 C 1863.48 352.12 1884.99 321.09 1905.97 289.71 C 1845.24 283.21 1784.43 277.25 1723.49 273.36 M 737.43 313.90 C 738.04 315.13 738.67 316.36 739.46 317.50 C 791.42 389.57 843.28 461.72 895.24 533.79 C 895.79 534.72 896.62 535.17 897.73 535.14 C 887.35 455.33 878.08 375.36 867.65 295.56 C 824.16 301.04 780.75 307.16 737.43 313.90 M 1958.54 296.09 C 1948.73 375.68 1938.74 455.24 1928.95 534.84 C 1931.30 533.55 1932.56 531.08 1934.15 529.01 C 1985.73 457.16 2037.63 385.53 2089.10 313.60 C 2069.08 310.25 2048.93 307.76 2028.85 304.80 C 2005.41 301.95 1982.05 298.25 1958.54 296.09 M 633.09 331.46 C 615.47 334.87 597.69 337.59 580.20 341.62 C 628.75 415.72 677.73 489.55 726.37 563.59 C 726.90 564.31 727.61 564.85 728.48 565.20 C 716.74 483.84 705.08 402.47 693.36 321.11 C 673.22 324.28 653.17 327.92 633.09 331.46 M 2133.17 320.35 C 2121.61 401.71 2109.60 483.00 2098.22 564.38 C 2100.48 562.86 2101.64 560.30 2103.16 558.12 C 2132.96 512.92 2162.74 467.71 2192.56 422.52 C 2210.57 394.88 2229.10 367.57 2246.86 339.77 C 2209.07 332.70 2171.16 326.20 2133.17 320.35 M 2275.99 356.05 C 2271.83 390.65 2267.68 425.26 2263.54 459.86 C 2259.49 494.67 2254.95 529.43 2251.20 564.27 C 2253.33 563.05 2254.50 560.83 2255.90 558.90 C 2301.14 495.49 2346.61 432.25 2391.75 368.77 C 2353.79 360.52 2315.75 352.46 2277.51 345.65 C 2276.68 349.07 2276.41 352.57 2275.99 356.05 M 510.87 355.37 C 486.09 360.52 461.41 366.16 436.70 371.65 C 437.17 372.69 437.63 373.75 438.27 374.71 C 482.10 435.90 525.83 497.18 569.65 558.38 C 571.42 560.87 573.06 563.48 575.32 565.58 C 575.20 560.05 574.20 554.59 573.61 549.10 C 565.67 482.00 557.39 414.94 549.60 347.83 C 536.55 349.47 523.78 352.87 510.87 355.37 M 2383.50 564.08 C 2386.77 562.65 2388.38 559.18 2390.76 556.70 C 2433.89 504.07 2477.18 451.57 2520.25 398.89 C 2485.29 390.03 2450.21 381.59 2414.97 373.97 C 2404.43 437.33 2393.95 500.70 2383.50 564.08 M 315.91 401.53 C 313.69 402.10 311.48 402.73 309.37 403.62 C 352.19 455.80 395.05 507.95 437.87 560.13 C 439.42 562.01 440.83 564.08 442.90 565.45 C 441.22 551.73 438.47 538.15 436.38 524.49 C 428.35 475.52 420.09 426.59 412.15 377.62 C 379.89 384.83 347.90 393.23 315.91 401.53 M 2541.28 404.18 C 2537.40 443.74 2534.27 483.38 2530.56 522.96 C 2529.59 536.90 2527.77 550.78 2527.13 564.72 C 2529.78 562.53 2531.60 559.55 2533.78 556.91 C 2564.88 517.27 2595.99 477.65 2627.10 438.01 C 2629.24 435.20 2631.74 432.61 2633.33 429.41 C 2602.77 420.55 2572.10 412.09 2541.28 404.18 M 265.03 415.50 C 242.40 422.06 219.65 428.30 197.33 435.88 C 205.17 446.60 213.66 456.83 221.77 467.34 C 245.93 498.15 270.13 528.94 294.29 559.75 C 295.85 561.84 297.44 563.93 299.49 565.59 C 297.78 541.44 295.21 517.37 293.29 493.24 C 290.66 465.48 288.50 437.68 285.73 409.94 C 278.72 411.37 271.94 413.70 265.03 415.50 Z" />
<path fill="#18204d" opacity="1.00" d=" M 1030.98 826.77 C 1049.33 826.77 1067.69 827.17 1086.03 826.43 C 1136.34 825.99 1186.66 826.28 1236.98 826.20 C 1269.94 826.26 1302.91 825.99 1335.86 826.56 C 1346.21 827.13 1356.60 826.69 1366.97 826.86 C 1379.98 827.05 1393.02 826.25 1406.00 827.30 C 1420.99 827.17 1436.00 827.76 1450.95 826.77 C 1467.29 826.84 1483.64 826.88 1499.98 826.83 C 1535.62 825.95 1571.29 826.24 1606.95 826.20 C 1659.30 826.29 1711.66 825.97 1764.00 826.47 C 1777.30 827.20 1790.64 826.71 1803.96 826.85 C 1814.68 826.40 1825.36 827.49 1836.08 827.40 C 1851.20 827.42 1866.33 827.83 1881.45 827.59 C 1892.29 828.33 1903.18 828.59 1914.04 828.11 C 1925.63 829.61 1937.37 827.85 1948.98 829.23 C 1958.94 829.40 1968.91 829.47 1978.87 829.49 C 1985.21 830.27 1991.62 829.83 1998.00 829.91 C 2003.01 829.66 2007.94 831.01 2012.97 830.66 C 2026.00 830.27 2038.98 831.61 2052.01 831.24 C 2060.98 832.30 2070.04 831.73 2079.06 831.92 C 2087.64 833.27 2096.33 832.14 2104.96 832.62 C 2111.98 833.88 2119.14 832.46 2126.18 833.60 C 2132.79 834.29 2139.46 833.34 2146.09 834.01 C 2152.36 835.05 2158.76 833.83 2165.06 834.78 C 2170.07 835.47 2175.14 834.74 2180.18 835.35 C 2184.44 835.86 2188.75 835.61 2193.05 835.70 C 2198.38 835.58 2203.67 836.59 2209.02 836.34 C 2214.69 836.07 2220.32 837.16 2226.01 836.93 C 2232.35 836.66 2238.62 837.97 2244.97 837.69 C 2296.29 839.38 2347.60 842.02 2398.90 844.16 C 2405.22 845.19 2411.65 844.11 2417.98 845.05 C 2443.64 846.20 2469.30 847.74 2494.96 849.07 C 2519.60 850.36 2544.22 851.45 2568.85 853.24 C 2608.24 855.51 2647.64 857.67 2687.01 860.51 C 2698.03 860.72 2708.98 862.35 2720.02 862.45 C 2745.66 864.19 2771.30 866.32 2796.96 867.87 C 2801.56 868.61 2806.76 867.28 2810.90 869.95 C 2785.94 870.49 2760.95 870.02 2735.99 870.18 C 1836.27 870.17 936.55 870.21 36.84 870.16 L 36.88 868.95 C 45.84 867.69 54.92 867.90 63.92 866.95 C 128.32 862.33 192.74 858.16 257.21 854.42 C 274.43 853.63 291.62 852.02 308.84 851.50 C 313.51 850.71 318.28 851.06 322.96 850.35 C 329.32 850.71 335.59 849.48 341.95 849.74 C 360.28 848.26 378.67 847.97 397.02 846.56 C 407.02 846.52 416.96 845.22 426.97 845.25 C 433.90 844.07 440.96 845.19 447.92 844.15 C 501.94 841.95 555.95 839.04 610.00 837.51 C 617.32 836.39 624.76 837.39 632.11 836.42 C 642.43 836.49 652.70 835.42 663.03 835.64 C 669.97 834.79 677.00 835.49 683.94 834.55 C 688.92 834.09 693.93 834.80 698.91 834.24 C 706.69 833.05 714.60 834.57 722.39 833.41 C 727.94 832.69 733.55 833.59 739.11 832.97 C 745.70 831.96 752.38 832.80 759.01 832.59 C 763.35 832.73 767.61 831.56 771.96 831.88 C 784.33 832.29 796.63 830.94 808.99 831.26 C 819.28 830.01 829.67 831.01 840.00 830.56 C 846.95 829.45 854.01 830.09 861.03 829.93 C 873.00 829.65 884.98 829.34 896.96 829.27 C 908.59 827.80 920.38 829.65 932.00 828.14 C 942.69 828.28 953.43 828.65 964.09 827.49 C 986.38 827.73 1008.71 827.62 1030.98 826.77 Z" />
</g>
<g id="#18204cff">
<path fill="#18204c" opacity="1.00" d=" M 1194.99 733.90 C 1202.94 732.97 1210.95 733.47 1218.94 733.35 C 1239.29 733.35 1259.63 733.35 1279.98 733.35 C 1290.66 733.55 1301.37 732.85 1312.01 733.91 C 1329.69 733.94 1347.37 733.90 1365.04 733.93 C 1373.29 735.11 1381.63 734.43 1389.94 734.65 C 1401.28 734.88 1412.68 733.97 1423.97 735.21 C 1431.93 734.04 1440.00 734.77 1448.02 734.66 C 1457.02 734.61 1466.02 734.64 1475.03 734.60 C 1485.30 733.30 1495.68 734.16 1506.01 733.92 C 1518.33 733.68 1530.69 734.44 1542.98 733.35 C 1576.66 733.35 1610.34 733.37 1644.02 733.34 C 1657.30 734.43 1670.67 733.69 1684.00 733.94 C 1693.65 734.20 1703.35 733.28 1712.96 734.58 C 1723.98 734.70 1735.00 734.61 1746.03 734.58 C 1759.98 735.87 1774.05 734.90 1788.05 735.35 C 1797.98 736.71 1808.08 734.96 1818.00 736.42 C 1826.98 736.72 1835.98 736.37 1844.96 736.71 C 1851.63 737.50 1858.36 737.09 1865.06 737.18 C 1870.41 736.88 1875.68 738.12 1881.04 737.86 C 1889.70 737.36 1898.29 738.97 1906.96 738.39 C 1919.92 738.67 1932.87 739.66 1945.85 739.79 C 1953.18 740.77 1960.61 739.84 1967.95 740.79 C 1971.96 741.10 1976.01 740.71 1980.05 741.06 C 1987.64 742.07 1995.34 741.23 2002.96 742.20 C 2011.67 741.93 2020.30 743.20 2029.02 742.88 C 2037.31 743.85 2045.68 743.60 2054.01 744.18 C 2114.10 747.24 2174.10 749.84 2234.08 754.05 C 2277.36 756.55 2320.60 759.87 2363.86 762.94 C 2394.51 765.65 2425.25 767.26 2455.87 770.46 C 2479.16 772.70 2502.53 774.15 2525.77 776.90 L 2526.43 778.27 C 2393.61 778.53 2260.78 778.31 2127.95 778.38 C 1693.96 778.38 1259.97 778.38 825.98 778.38 C 657.48 778.32 488.98 778.50 320.49 778.29 L 321.13 776.90 C 341.75 774.46 362.47 773.00 383.16 771.20 C 420.38 767.33 457.76 765.38 495.01 761.95 C 534.34 759.52 573.64 756.20 612.97 754.03 C 641.33 752.21 669.68 750.26 698.05 748.93 C 714.07 748.31 730.06 746.96 746.10 746.63 C 759.72 745.44 773.43 745.66 787.04 744.29 C 790.99 743.99 794.98 744.39 798.94 743.92 C 804.58 743.26 810.29 744.00 815.91 743.04 C 821.30 742.59 826.76 743.29 832.13 742.37 C 853.77 742.08 875.35 740.45 896.99 740.18 C 903.28 739.39 909.65 740.01 915.95 739.26 C 921.43 738.76 926.96 739.46 932.42 738.57 C 939.61 738.02 946.85 738.86 954.05 738.17 C 961.29 737.18 968.66 738.52 975.90 737.29 C 984.91 736.86 993.98 737.70 1002.98 736.68 C 1011.62 736.38 1020.29 736.71 1028.94 736.42 C 1039.22 734.96 1049.68 736.73 1059.97 735.27 C 1071.00 735.28 1082.03 735.23 1093.06 735.21 C 1108.97 733.59 1125.07 735.73 1140.98 733.91 C 1158.98 733.95 1176.99 733.93 1194.99 733.90 Z" />
</g>
<g id="#010101ff">
<path fill="#010101" opacity="1.00" d=" M 1897.52 1053.62 C 1898.21 1051.76 1899.52 1050.27 1901.00 1048.98 C 1902.40 1050.23 1903.96 1051.49 1904.68 1053.32 C 1916.05 1079.64 1927.17 1106.07 1938.50 1132.41 C 1941.64 1139.56 1944.43 1146.90 1948.29 1153.72 C 1950.00 1156.55 1952.18 1159.20 1954.95 1161.08 C 1958.20 1162.94 1962.10 1162.53 1965.71 1162.94 C 1964.83 1164.26 1963.77 1165.46 1962.04 1165.06 C 1949.73 1164.96 1937.38 1165.55 1925.12 1164.15 C 1926.77 1162.67 1930.29 1161.39 1928.68 1158.54 C 1924.47 1148.28 1920.75 1137.80 1916.20 1127.69 C 1903.16 1127.37 1890.03 1127.73 1876.97 1127.52 C 1874.04 1135.29 1870.57 1142.85 1867.61 1150.60 C 1866.67 1153.55 1865.65 1156.75 1866.27 1159.87 C 1867.84 1163.83 1872.69 1162.13 1875.90 1162.81 C 1877.65 1162.90 1876.61 1165.51 1875.15 1165.01 C 1868.09 1165.49 1861.08 1163.72 1854.02 1164.47 C 1848.53 1165.13 1843.01 1165.15 1837.51 1165.05 C 1837.90 1164.27 1837.03 1162.01 1838.79 1162.66 C 1844.10 1163.29 1849.78 1161.31 1852.70 1156.63 C 1856.30 1150.91 1858.27 1144.34 1861.15 1138.25 C 1873.29 1110.05 1885.42 1081.84 1897.52 1053.62 M 1896.43 1079.11 C 1890.91 1092.61 1885.31 1106.13 1880.46 1119.88 C 1891.19 1119.99 1901.92 1119.94 1912.66 1119.91 C 1911.95 1116.60 1910.50 1113.54 1909.34 1110.40 C 1905.34 1100.05 1901.45 1089.66 1897.35 1079.36 C 1897.12 1079.30 1896.66 1079.18 1896.43 1079.11 Z" />
<path fill="#010101" opacity="1.00" d=" M 2584.42 1053.42 C 2585.09 1051.58 2586.48 1050.20 2587.98 1048.99 C 2590.04 1050.67 2591.53 1052.89 2592.43 1055.41 C 2605.45 1085.55 2618.08 1115.85 2631.18 1145.96 C 2633.71 1151.38 2636.34 1157.15 2641.32 1160.79 C 2644.52 1162.99 2648.57 1162.42 2652.24 1162.89 C 2652.21 1165.20 2649.61 1165.06 2648.02 1165.08 C 2636.05 1165.00 2624.08 1165.42 2612.17 1164.27 C 2612.34 1163.94 2612.67 1163.27 2612.84 1162.94 C 2614.66 1162.74 2616.56 1161.06 2615.68 1159.10 C 2611.77 1149.07 2607.85 1139.05 2603.74 1129.11 C 2603.36 1126.68 2600.71 1127.66 2599.05 1127.53 C 2587.33 1127.79 2575.57 1127.31 2563.89 1127.69 C 2560.48 1135.76 2556.96 1143.82 2553.95 1152.05 C 2553.20 1155.23 2551.26 1159.95 2555.03 1161.93 C 2557.51 1163.80 2562.03 1161.08 2563.64 1163.86 L 2563.07 1164.96 C 2557.69 1165.51 2552.36 1164.36 2547.01 1164.37 C 2539.65 1164.08 2532.33 1165.70 2524.99 1164.93 C 2522.78 1163.73 2525.34 1161.91 2526.98 1162.65 C 2533.63 1163.52 2539.38 1158.59 2541.74 1152.71 C 2556.01 1119.63 2570.23 1086.54 2584.42 1053.42 M 2583.35 1079.06 C 2577.51 1092.37 2572.66 1106.11 2567.07 1119.53 C 2577.82 1120.44 2588.69 1119.74 2599.50 1119.89 C 2595.39 1107.20 2589.98 1094.96 2585.45 1082.41 C 2584.78 1081.25 2584.85 1079.41 2583.35 1079.06 Z" />
<path fill="#010101" opacity="1.00" d=" M 1410.79 1053.94 C 1410.54 1052.30 1411.83 1051.22 1412.81 1050.14 C 1418.81 1053.96 1423.15 1059.76 1428.35 1064.54 C 1450.97 1087.30 1473.87 1109.79 1496.43 1132.61 C 1497.92 1134.10 1499.30 1135.99 1501.63 1136.08 C 1500.94 1123.40 1501.37 1110.68 1500.41 1098.02 C 1500.80 1086.62 1500.04 1075.24 1499.68 1063.88 C 1499.46 1060.13 1497.31 1056.09 1493.26 1055.55 C 1490.09 1054.44 1486.09 1056.26 1483.58 1053.63 C 1488.66 1052.65 1493.87 1053.33 1499.02 1053.22 C 1507.75 1053.41 1516.48 1052.95 1525.21 1053.28 C 1525.07 1053.67 1524.80 1054.46 1524.66 1054.85 C 1521.26 1055.30 1517.08 1054.78 1514.65 1057.72 C 1511.83 1061.51 1512.45 1066.59 1512.32 1071.05 C 1512.69 1080.70 1511.48 1090.31 1511.76 1099.96 C 1512.05 1112.32 1510.89 1124.64 1511.12 1137.00 C 1511.37 1145.37 1510.50 1153.71 1510.50 1162.08 C 1510.42 1163.55 1510.53 1165.46 1509.04 1166.33 C 1505.22 1166.56 1502.50 1163.47 1500.05 1161.01 C 1485.26 1147.14 1470.60 1133.13 1455.96 1119.10 C 1446.20 1109.83 1437.09 1099.92 1427.73 1090.27 C 1425.34 1087.98 1423.45 1084.93 1420.23 1083.75 C 1420.17 1089.17 1419.95 1094.63 1420.71 1100.02 C 1421.15 1106.34 1420.48 1112.70 1421.02 1119.03 C 1422.17 1127.28 1420.70 1135.68 1421.94 1143.95 C 1422.39 1149.32 1421.58 1155.42 1424.99 1160.04 C 1428.50 1164.00 1434.42 1161.24 1438.42 1163.92 C 1435.58 1165.78 1432.10 1164.87 1428.94 1165.09 C 1424.26 1165.32 1419.66 1164.22 1414.99 1164.34 C 1408.45 1164.39 1401.80 1165.96 1395.33 1164.60 C 1394.37 1162.26 1397.47 1162.63 1398.88 1162.63 C 1401.86 1162.58 1405.79 1162.51 1407.42 1159.51 C 1409.86 1154.65 1408.21 1149.11 1409.21 1143.98 C 1409.87 1131.68 1409.31 1119.36 1409.54 1107.06 C 1410.74 1093.73 1409.75 1080.33 1410.27 1066.98 C 1410.80 1062.65 1410.62 1058.28 1410.79 1053.94 Z" />
<path fill="#010101" opacity="1.00" d=" M 2358.01 1050.40 C 2361.81 1051.17 2364.33 1054.45 2366.90 1057.10 C 2389.70 1080.96 2413.92 1103.36 2437.00 1126.94 C 2440.43 1130.05 2443.14 1134.05 2447.24 1136.38 C 2447.91 1123.22 2446.52 1110.09 2446.74 1096.94 C 2446.86 1089.94 2445.85 1082.99 2446.08 1076.00 C 2446.02 1070.43 2446.38 1064.66 2444.55 1059.33 C 2442.31 1055.18 2437.03 1055.05 2432.92 1055.05 C 2431.77 1054.87 2429.42 1055.23 2430.31 1053.41 C 2436.17 1052.75 2442.09 1053.37 2447.99 1053.23 C 2455.70 1053.44 2463.43 1052.85 2471.13 1053.32 L 2471.43 1054.32 C 2468.32 1055.65 2464.52 1054.58 2461.71 1056.75 C 2459.10 1058.59 2458.53 1062.02 2458.63 1065.01 C 2458.60 1072.02 2457.87 1078.99 2458.09 1086.01 C 2457.87 1093.70 2458.59 1101.43 2457.52 1109.09 C 2457.01 1121.03 2457.87 1133.03 2456.81 1144.95 C 2456.43 1152.04 2457.47 1159.26 2455.99 1166.27 C 2451.68 1167.12 2448.90 1163.50 2446.02 1161.03 C 2424.02 1140.05 2401.65 1119.42 2380.60 1097.47 C 2376.06 1092.54 2371.51 1087.61 2366.51 1083.17 C 2366.07 1090.44 2366.46 1097.78 2366.60 1105.08 C 2367.54 1112.99 2366.75 1120.97 2367.38 1128.91 C 2368.14 1136.24 2367.20 1143.64 2368.26 1150.95 C 2368.53 1155.30 2369.58 1161.49 2374.91 1162.11 C 2377.86 1163.34 2381.63 1161.41 2384.08 1163.88 C 2381.81 1165.71 2378.72 1164.89 2376.07 1165.10 C 2369.66 1165.33 2363.31 1163.79 2356.91 1164.52 C 2352.25 1165.06 2347.55 1165.26 2342.88 1165.00 C 2341.73 1164.93 2341.03 1164.28 2340.76 1163.07 C 2344.94 1162.12 2350.60 1163.69 2353.49 1159.66 C 2355.93 1153.07 2354.94 1145.89 2355.10 1139.02 C 2354.77 1132.63 2355.93 1126.31 2355.76 1119.93 C 2355.86 1110.62 2355.66 1101.32 2355.75 1092.01 C 2356.83 1083.38 2356.19 1074.66 2356.45 1065.99 C 2356.76 1060.77 2355.17 1055.17 2358.01 1050.40 Z" />
<path fill="#010101" opacity="1.00" d=" M 1652.01 1053.26 C 1659.63 1053.16 1667.37 1053.81 1674.83 1051.83 C 1674.15 1057.20 1673.35 1062.58 1673.20 1068.01 C 1672.98 1070.24 1673.04 1072.82 1671.12 1074.37 C 1670.44 1070.87 1670.47 1066.86 1667.90 1064.11 C 1664.26 1061.21 1659.36 1061.28 1654.97 1061.35 C 1647.89 1060.31 1640.74 1060.90 1633.62 1060.70 C 1632.91 1063.75 1633.18 1066.91 1633.17 1070.04 C 1633.22 1080.39 1633.05 1090.75 1633.26 1101.11 C 1639.80 1101.80 1646.41 1101.27 1652.98 1101.25 C 1657.35 1100.51 1661.84 1101.39 1666.18 1100.40 C 1668.66 1099.92 1670.25 1097.73 1672.29 1096.42 C 1672.27 1103.01 1670.61 1109.48 1670.64 1116.09 C 1670.32 1118.10 1670.88 1120.73 1669.02 1122.16 C 1667.57 1118.68 1668.92 1114.02 1665.55 1111.39 C 1660.40 1107.79 1653.82 1109.62 1648.00 1109.03 C 1643.49 1108.35 1638.90 1108.26 1634.37 1108.51 C 1634.10 1108.69 1633.57 1109.05 1633.31 1109.24 C 1632.88 1121.14 1633.40 1133.08 1633.18 1145.00 C 1633.15 1148.95 1634.43 1153.65 1638.37 1155.41 C 1644.84 1158.31 1652.11 1157.45 1659.01 1157.55 C 1664.47 1157.39 1671.34 1156.60 1674.18 1151.20 C 1676.09 1148.27 1675.34 1144.17 1678.00 1141.68 C 1679.01 1147.48 1677.91 1153.37 1677.00 1159.12 C 1676.55 1161.46 1676.16 1164.93 1673.09 1165.06 C 1660.07 1165.38 1647.00 1165.27 1634.01 1164.41 C 1625.34 1164.42 1616.63 1163.93 1608.01 1165.03 C 1605.15 1165.13 1602.13 1165.41 1599.56 1163.96 C 1602.71 1161.39 1607.54 1163.75 1610.56 1160.60 C 1613.24 1156.63 1612.77 1151.51 1612.96 1146.94 C 1613.83 1129.98 1613.31 1112.97 1613.45 1095.99 C 1613.28 1084.39 1613.91 1072.73 1612.74 1061.17 C 1612.21 1057.00 1607.53 1055.62 1603.98 1055.23 C 1601.78 1054.77 1598.76 1055.88 1597.56 1053.40 C 1601.97 1052.41 1606.47 1053.21 1610.95 1053.20 C 1624.63 1053.30 1638.32 1053.21 1652.01 1053.26 Z" />
<path fill="#010101" opacity="1.00" d=" M 2258.98 1053.26 C 2262.85 1053.36 2266.68 1052.60 2270.46 1051.76 C 2269.03 1058.24 2268.96 1064.90 2268.29 1071.49 C 2268.28 1072.82 2267.36 1073.78 2266.38 1074.53 C 2266.00 1070.84 2265.96 1066.68 2263.04 1063.96 C 2259.35 1061.07 2254.45 1061.37 2250.06 1061.35 C 2243.02 1060.32 2235.89 1060.84 2228.82 1060.76 C 2228.06 1066.81 2228.63 1072.93 2228.46 1079.02 C 2228.63 1086.45 2228.09 1093.91 2228.77 1101.32 C 2239.31 1101.53 2249.89 1101.45 2260.41 1100.65 C 2263.39 1100.47 2265.45 1098.18 2267.84 1096.67 C 2267.54 1103.11 2266.15 1109.48 2266.09 1115.95 C 2265.82 1117.93 2266.55 1120.45 2264.77 1121.91 C 2262.30 1120.47 2264.28 1117.05 2263.26 1114.79 C 2261.55 1109.79 2255.54 1108.97 2250.99 1109.09 C 2243.78 1109.52 2236.63 1107.73 2229.43 1108.58 C 2228.09 1109.01 2228.63 1110.87 2228.45 1111.93 C 2228.49 1122.31 2228.43 1132.68 2228.45 1143.06 C 2228.59 1146.26 2228.84 1149.67 2230.52 1152.50 C 2233.86 1156.87 2239.85 1157.29 2244.93 1157.55 C 2252.19 1157.44 2260.09 1158.47 2266.68 1154.72 C 2271.12 1151.82 2270.56 1145.96 2273.04 1141.84 C 2275.17 1145.46 2273.31 1149.58 2273.33 1153.49 C 2272.48 1157.28 2272.91 1162.06 2269.84 1164.89 C 2249.44 1166.23 2229.01 1163.59 2208.59 1164.50 C 2204.32 1164.71 2199.71 1166.03 2195.66 1164.27 C 2195.22 1161.80 2198.66 1162.96 2200.04 1162.61 C 2202.73 1162.77 2205.94 1161.80 2206.93 1159.00 C 2208.72 1154.16 2208.29 1148.88 2208.78 1143.83 C 2208.91 1117.88 2208.81 1091.91 2208.84 1065.96 C 2208.81 1062.24 2208.05 1057.45 2203.91 1056.28 C 2200.29 1054.34 2195.85 1056.13 2192.47 1053.83 C 2196.79 1052.04 2201.47 1053.30 2205.99 1053.19 C 2223.65 1053.31 2241.32 1053.20 2258.98 1053.26 Z" />
<path fill="#010101" opacity="1.00" d=" M 198.81 1053.77 C 200.81 1053.13 202.92 1053.08 205.01 1053.12 C 219.65 1053.31 234.29 1053.25 248.94 1053.14 C 258.03 1052.82 267.55 1053.89 275.47 1058.71 C 281.20 1062.23 284.81 1068.46 286.18 1074.94 C 287.44 1084.75 284.28 1095.19 277.33 1102.31 C 268.55 1112.03 254.31 1116.19 241.60 1113.65 C 242.63 1112.24 244.27 1111.66 245.98 1111.79 C 253.14 1111.86 259.73 1107.53 263.61 1101.69 C 268.40 1094.89 268.80 1085.93 266.95 1078.06 C 264.95 1069.69 258.46 1062.31 250.12 1059.91 C 245.26 1058.77 239.92 1058.14 235.21 1060.11 C 234.56 1061.62 234.41 1063.29 234.43 1064.94 C 234.44 1081.96 234.43 1098.99 234.44 1116.03 C 234.27 1127.03 235.12 1138.00 234.81 1149.01 C 235.27 1153.00 234.64 1158.00 238.02 1160.92 C 241.32 1162.82 245.30 1162.66 249.00 1162.63 C 250.93 1162.20 253.06 1164.72 250.01 1164.97 C 240.65 1165.68 231.34 1164.08 221.98 1164.37 C 215.65 1164.37 209.33 1165.60 203.00 1164.92 C 201.68 1164.21 201.69 1163.47 203.04 1162.69 C 205.66 1162.48 208.49 1163.06 210.86 1161.60 C 213.41 1160.41 213.83 1157.33 214.32 1154.88 C 215.73 1134.64 215.05 1114.30 215.21 1094.00 C 215.00 1083.34 215.70 1072.63 214.61 1062.00 C 214.61 1058.64 211.38 1056.33 208.38 1055.65 C 205.25 1054.57 201.55 1055.99 198.81 1053.77 Z" />
<path fill="#010101" opacity="1.00" d=" M 357.49 1053.29 C 371.98 1052.98 386.50 1053.45 401.00 1053.12 C 402.67 1053.24 405.17 1052.46 405.34 1054.91 C 400.68 1055.17 393.38 1054.99 392.72 1061.15 C 392.07 1074.59 391.47 1088.11 392.19 1101.58 C 412.43 1101.68 432.67 1101.59 452.91 1101.62 C 453.19 1089.75 453.08 1077.88 453.03 1066.01 C 452.75 1063.13 452.94 1059.63 450.52 1057.58 C 446.86 1054.84 442.11 1055.19 437.81 1054.87 C 437.89 1054.48 438.04 1053.70 438.12 1053.31 C 452.39 1052.93 466.70 1053.49 480.99 1053.12 C 482.93 1053.25 485.54 1052.48 486.63 1054.67 C 483.45 1055.13 480.15 1055.10 477.09 1056.16 C 474.10 1057.43 473.57 1061.06 473.29 1063.93 C 473.37 1089.28 473.31 1114.64 473.34 1139.99 C 473.08 1145.82 473.19 1151.70 474.35 1157.45 C 474.79 1159.72 476.79 1161.43 479.01 1161.93 C 482.72 1163.07 486.65 1162.36 490.46 1162.93 C 490.09 1163.42 489.37 1164.42 489.00 1164.91 C 480.33 1165.69 471.69 1164.20 463.02 1164.35 C 455.65 1164.22 448.32 1165.60 440.95 1164.98 C 440.62 1164.46 439.97 1163.43 439.64 1162.92 C 443.12 1162.47 447.02 1163.19 450.06 1161.03 C 451.70 1159.53 452.20 1157.16 452.42 1155.05 C 453.87 1139.99 452.53 1124.85 453.07 1109.76 C 433.38 1109.61 413.69 1109.70 394.00 1109.71 C 391.93 1109.26 391.82 1111.57 391.90 1113.01 C 391.92 1122.00 391.78 1131.01 392.56 1139.98 C 392.67 1146.25 391.76 1152.87 394.12 1158.85 C 397.11 1164.11 404.15 1161.83 408.95 1163.05 C 408.91 1163.50 408.83 1164.39 408.79 1164.83 C 399.54 1165.81 390.30 1164.16 381.03 1164.35 C 374.28 1164.21 367.57 1165.58 360.81 1164.97 C 359.56 1165.34 358.16 1162.81 360.09 1162.77 C 362.88 1162.38 366.00 1163.13 368.50 1161.48 C 370.74 1159.93 371.03 1156.99 371.53 1154.55 C 372.78 1143.07 372.14 1131.51 372.30 1119.99 C 372.29 1101.99 372.30 1084.00 372.30 1066.00 C 372.23 1062.85 372.02 1058.89 369.02 1057.07 C 365.32 1054.94 360.91 1055.14 356.80 1054.87 C 356.97 1054.47 357.32 1053.68 357.49 1053.29 Z" />
<path fill="#010101" opacity="1.00" d=" M 563.46 1054.79 C 563.86 1053.54 564.70 1052.99 565.97 1053.16 C 579.30 1053.19 592.65 1053.35 605.99 1053.12 C 607.63 1053.17 609.79 1052.69 610.46 1054.72 C 606.54 1055.55 600.89 1054.43 598.58 1058.54 C 596.04 1064.72 597.80 1071.55 597.29 1078.03 C 596.46 1085.30 596.98 1092.63 596.84 1099.94 C 596.92 1109.97 596.67 1120.00 596.95 1130.02 C 598.34 1139.63 595.57 1149.73 598.86 1159.06 C 602.25 1164.05 609.25 1162.03 614.34 1162.94 C 614.11 1164.26 613.40 1164.95 612.20 1165.00 C 600.95 1165.72 589.73 1163.43 578.50 1164.72 C 573.96 1165.34 569.38 1164.99 564.82 1165.07 C 564.64 1164.53 564.27 1163.44 564.09 1162.90 C 567.89 1162.31 573.20 1163.58 575.43 1159.51 C 577.37 1152.89 576.99 1145.82 577.09 1138.99 C 577.09 1114.65 577.08 1090.32 577.09 1065.99 C 577.02 1062.81 576.96 1058.93 574.06 1056.92 C 570.91 1054.92 567.02 1055.17 563.46 1054.79 Z" />
<path fill="#010101" opacity="1.00" d=" M 686.65 1053.27 C 701.42 1053.01 716.19 1053.44 730.96 1053.12 C 732.76 1053.39 735.70 1052.26 736.22 1054.78 C 731.84 1055.49 726.31 1054.39 722.99 1057.98 C 720.70 1062.60 721.39 1067.96 721.24 1072.97 C 721.44 1090.66 721.34 1108.35 721.35 1126.04 C 721.33 1134.44 720.55 1143.05 722.85 1151.23 C 723.92 1154.69 727.81 1155.79 731.01 1156.21 C 737.27 1157.42 743.65 1156.57 749.98 1156.86 C 755.00 1157.03 760.93 1156.49 764.32 1152.27 C 766.81 1149.44 767.33 1145.60 768.30 1142.11 C 770.20 1141.38 770.42 1143.56 770.21 1144.94 C 769.35 1151.04 769.38 1157.36 767.21 1163.20 C 765.86 1165.29 763.13 1165.12 760.97 1165.22 C 751.97 1165.32 742.97 1165.04 733.98 1165.03 C 723.99 1164.06 713.94 1164.36 703.93 1164.38 C 698.49 1164.33 692.76 1166.39 687.58 1163.98 C 690.76 1161.40 695.55 1163.75 698.58 1160.65 C 700.92 1157.25 700.66 1152.91 701.05 1148.99 C 701.14 1120.67 701.09 1092.34 701.09 1064.02 C 701.07 1061.67 700.63 1058.96 698.55 1057.56 C 695.39 1055.04 691.18 1055.25 687.41 1054.81 C 687.22 1054.43 686.84 1053.66 686.65 1053.27 Z" />
<path fill="#010101" opacity="1.00" d=" M 836.67 1053.76 C 839.69 1052.86 842.87 1053.15 845.98 1053.16 C 855.00 1053.27 864.02 1053.25 873.04 1053.20 C 876.77 1053.20 880.56 1052.82 884.25 1053.62 C 881.16 1056.59 875.56 1054.05 872.65 1057.59 C 870.25 1061.20 870.85 1065.84 870.72 1069.98 C 870.92 1096.32 870.72 1122.67 870.77 1149.02 C 871.22 1152.88 870.67 1157.46 873.53 1160.53 C 876.85 1162.86 881.18 1162.64 885.07 1162.62 C 886.28 1162.40 887.22 1162.80 887.89 1163.83 C 887.09 1165.21 885.40 1165.00 884.05 1165.08 C 872.39 1165.41 860.73 1163.34 849.10 1164.95 C 845.12 1164.82 840.68 1166.04 837.07 1163.95 C 839.54 1161.58 843.13 1163.37 845.99 1161.97 C 848.59 1161.25 849.61 1158.45 849.86 1156.04 C 851.23 1147.75 850.22 1139.34 850.46 1131.01 C 850.52 1108.32 850.40 1085.62 850.53 1062.94 C 850.34 1060.29 849.21 1057.37 846.58 1056.32 C 843.52 1054.48 839.38 1056.11 836.67 1053.76 Z" />
<path fill="#010101" opacity="1.00" d=" M 958.71 1054.71 C 959.54 1052.45 962.18 1053.29 964.02 1053.11 C 979.67 1053.35 995.33 1053.20 1011.00 1053.15 C 1018.84 1052.93 1026.95 1054.31 1033.90 1058.09 C 1041.23 1061.91 1045.25 1070.01 1046.19 1077.96 C 1046.19 1087.90 1042.15 1098.01 1034.67 1104.71 C 1025.68 1112.67 1013.09 1115.62 1001.35 1113.99 C 1002.60 1110.78 1006.22 1112.10 1008.87 1111.54 C 1018.23 1109.59 1025.51 1101.35 1027.09 1092.02 C 1028.05 1084.05 1027.20 1075.37 1022.17 1068.80 C 1016.32 1060.26 1004.68 1056.97 994.95 1059.84 C 993.64 1060.82 994.25 1062.62 994.13 1064.01 C 994.33 1091.70 994.05 1119.38 994.19 1147.06 C 994.93 1151.42 993.95 1156.42 996.72 1160.19 C 1000.72 1163.69 1006.49 1162.14 1011.32 1163.01 C 1010.99 1163.49 1010.35 1164.47 1010.03 1164.96 C 999.30 1165.74 988.62 1163.75 977.90 1164.49 C 972.65 1164.96 967.28 1165.58 962.05 1164.71 C 959.69 1162.97 963.65 1162.22 964.91 1162.62 C 967.63 1162.96 970.18 1161.99 972.35 1160.42 C 975.21 1151.25 974.40 1141.50 974.58 1132.04 C 974.55 1110.02 974.60 1088.00 974.56 1065.98 C 974.47 1062.96 974.35 1059.23 971.59 1057.37 C 967.87 1054.62 963.02 1055.30 958.71 1054.71 Z" />
<path fill="#010101" opacity="1.00" d=" M 1115.67 1053.78 C 1118.67 1052.82 1121.86 1053.16 1124.97 1053.15 C 1140.67 1053.41 1156.38 1053.07 1172.08 1053.20 C 1181.09 1053.63 1190.77 1055.99 1197.09 1062.87 C 1201.72 1068.38 1204.18 1075.91 1202.99 1083.07 C 1201.90 1092.04 1197.26 1100.63 1190.03 1106.11 C 1181.32 1113.18 1169.45 1115.43 1158.50 1113.98 C 1159.27 1112.64 1160.24 1111.44 1161.98 1111.82 C 1172.70 1112.11 1182.03 1103.23 1184.08 1093.02 C 1185.03 1085.21 1184.79 1076.66 1180.11 1069.97 C 1174.58 1060.76 1162.63 1056.93 1152.50 1059.68 C 1150.98 1060.50 1151.16 1062.45 1151.14 1063.93 C 1151.19 1088.29 1151.12 1112.64 1151.19 1137.00 C 1151.11 1143.36 1151.45 1149.74 1152.28 1156.06 C 1152.45 1159.10 1154.75 1161.99 1157.95 1162.12 C 1161.14 1163.11 1164.62 1162.09 1167.77 1163.03 L 1168.06 1163.98 C 1167.82 1164.23 1167.32 1164.72 1167.07 1164.97 C 1156.01 1165.80 1145.01 1163.63 1133.95 1164.57 C 1129.05 1165.08 1124.05 1165.46 1119.17 1164.74 C 1119.09 1164.25 1118.94 1163.28 1118.86 1162.79 C 1122.02 1162.36 1125.50 1163.18 1128.36 1161.35 C 1130.77 1159.30 1130.75 1155.83 1131.08 1152.95 C 1131.95 1146.98 1131.66 1140.93 1131.54 1134.93 C 1131.81 1113.96 1131.76 1092.98 1131.55 1072.01 C 1131.48 1067.59 1132.46 1062.82 1130.28 1058.76 C 1127.04 1054.90 1121.56 1055.32 1117.06 1054.78 L 1115.67 1053.78 Z" />
<path fill="#010101" opacity="1.00" d=" M 1274.92 1053.61 C 1280.22 1052.63 1285.63 1053.39 1290.99 1053.22 C 1301.39 1053.44 1311.81 1052.89 1322.20 1053.35 C 1321.52 1055.67 1318.79 1054.83 1317.01 1055.29 C 1314.60 1055.62 1311.65 1055.97 1310.46 1058.41 C 1309.02 1061.01 1309.11 1064.09 1308.92 1066.98 C 1308.86 1087.31 1308.90 1107.65 1308.89 1127.98 C 1309.03 1137.27 1308.48 1146.60 1309.62 1155.86 C 1309.90 1157.98 1310.77 1160.22 1312.81 1161.26 C 1316.94 1163.08 1321.54 1162.46 1325.92 1162.84 C 1325.73 1163.40 1325.36 1164.52 1325.17 1165.08 C 1312.78 1165.67 1300.41 1163.29 1288.06 1164.92 C 1284.12 1165.13 1280.15 1165.29 1276.24 1164.80 C 1276.19 1164.37 1276.08 1163.51 1276.03 1163.08 C 1279.89 1162.09 1285.93 1163.63 1287.56 1158.66 C 1288.73 1153.88 1288.87 1148.92 1288.69 1144.03 C 1288.65 1117.36 1288.67 1090.67 1288.73 1064.00 C 1288.97 1060.36 1286.92 1056.27 1283.02 1055.70 C 1280.38 1054.65 1276.86 1056.02 1274.92 1053.61 Z" />
<path fill="#010101" opacity="1.00" d=" M 2019.59 1053.37 C 2029.71 1052.84 2039.87 1053.43 2050.01 1053.24 C 2059.38 1053.29 2068.75 1052.91 2078.12 1053.34 C 2086.66 1054.28 2095.93 1056.49 2101.71 1063.37 C 2107.84 1070.24 2109.57 1080.50 2106.05 1089.01 C 2102.20 1098.65 2094.19 1105.71 2086.38 1112.17 C 2096.34 1124.95 2106.62 1137.52 2117.53 1149.52 C 2123.09 1155.48 2129.64 1161.54 2138.12 1162.52 C 2139.60 1163.02 2142.43 1161.77 2142.64 1164.18 C 2140.67 1165.55 2138.18 1164.94 2135.98 1165.09 C 2128.09 1164.83 2120.02 1165.88 2112.35 1163.58 C 2105.98 1161.33 2100.70 1156.76 2096.61 1151.48 C 2088.25 1141.62 2081.17 1130.81 2073.66 1120.32 C 2072.33 1117.81 2069.30 1118.68 2067.02 1118.57 C 2062.98 1118.90 2058.98 1117.88 2054.96 1118.23 C 2053.78 1119.53 2054.47 1121.44 2054.31 1123.03 C 2054.32 1132.04 2054.88 1141.03 2054.97 1150.04 C 2055.57 1153.88 2054.79 1158.99 2058.67 1161.36 C 2062.29 1162.88 2066.28 1162.50 2070.13 1162.85 C 2071.89 1164.93 2068.18 1165.12 2066.97 1165.08 C 2056.25 1165.59 2045.56 1163.42 2034.85 1164.80 C 2030.58 1165.04 2026.09 1165.73 2022.01 1164.15 C 2024.98 1161.03 2030.50 1164.14 2033.24 1160.21 C 2036.40 1154.32 2034.71 1147.36 2035.62 1141.00 C 2035.89 1117.31 2035.74 1093.62 2035.70 1069.94 C 2035.48 1065.75 2035.91 1061.21 2033.52 1057.53 C 2030.22 1055.87 2026.60 1054.92 2022.91 1055.05 C 2021.39 1055.29 2020.34 1054.55 2019.59 1053.37 M 2055.55 1060.69 L 2054.90 1060.96 C 2054.13 1066.91 2054.78 1072.99 2054.58 1078.99 C 2054.68 1089.00 2054.37 1099.02 2054.72 1109.02 C 2056.81 1111.31 2060.28 1110.80 2063.10 1111.35 C 2068.86 1111.65 2075.60 1112.42 2080.26 1108.25 C 2088.25 1101.91 2090.43 1090.62 2088.85 1080.98 C 2088.05 1074.30 2084.73 1067.72 2079.01 1063.96 C 2072.22 1059.21 2063.34 1059.45 2055.55 1060.69 Z" />
</g>
</svg>
